HIERARCHY
ROOT hip
{
  OFFSET 0 90.174 2.4664
  CHANNELS 6 Xposition Yposition Zposition Zrotation Xrotation Yrotation
  JOINT abdomen
  {
    OFFSET 0 -1.186 -1.5018
    CHANNELS 6 Xposition Yposition Zposition Zrotation Xrotation Yrotation
    JOINT abdomen2
    {
      OFFSET 0 9.964 0.2134
      CHANNELS 6 Xposition Yposition Zposition Zrotation Xrotation Yrotation
      JOINT chest
      {
        OFFSET 0 13.134 -3.2573
        CHANNELS 6 Xposition Yposition Zposition Zrotation Xrotation Yrotation
        JOINT neck
        {
          OFFSET 0 20.686 -1.6905
          CHANNELS 6 Xposition Yposition Zposition Zrotation Xrotation Yrotation
          JOINT head
          {
            OFFSET 0 7.238 -0.1237
            CHANNELS 6 Xposition Yposition Zposition Zrotation Xrotation Yrotation
            End Site
            {
              OFFSET 0 0 0
            }
          }
        }
        JOINT lCollar
        {
          OFFSET 1.7069 20.075 5.0056
          CHANNELS 6 Xposition Yposition Zposition Zrotation Xrotation Yrotation
          JOINT lShldr
          {
            OFFSET 13.6458 -0.047 -4.849
            CHANNELS 6 Xposition Yposition Zposition Zrotation Xrotation Yrotation
            JOINT lForeArm
            {
              OFFSET 28.3255 -0.9759 2.2888
              CHANNELS 6 Xposition Yposition Zposition Zrotation Xrotation Yrotation
              JOINT lHand
              {
                OFFSET 22.1583 -0.53 10.8316
                CHANNELS 6 Xposition Yposition Zposition Zrotation Xrotation Yrotation
                JOINT lThumb1
                {
                  OFFSET 0.786 0.112 2.5817
                  CHANNELS 6 Xposition Yposition Zposition Zrotation Xrotation Yrotation
                  JOINT lThumb2
                  {
                    OFFSET 0.3601 -0.878 4.2331
                    CHANNELS 6 Xposition Yposition Zposition Zrotation Xrotation Yrotation
                    JOINT lThumb2_End
                    {
                      OFFSET 1.8127 -1.216 2.2227
                      CHANNELS 6 Xposition Yposition Zposition Zrotation Xrotation Yrotation
                      End Site
                      {
                        OFFSET 0.0181 -0.0122 0.0222
                      }
                    }
                  }
                }
                JOINT lCarpal1
                {
                  OFFSET 0.9571 1.114 1.7695
                  CHANNELS 6 Xposition Yposition Zposition Zrotation Xrotation Yrotation
                  JOINT lIndex1
                  {
                    OFFSET 4.1246 0.487 4.1451
                    CHANNELS 6 Xposition Yposition Zposition Zrotation Xrotation Yrotation
                    JOINT lIndex2
                    {
                      OFFSET 3.4052 -1.454 2.7682
                      CHANNELS 6 Xposition Yposition Zposition Zrotation Xrotation Yrotation
                      JOINT lIndex2_End
                      {
                        OFFSET 1.4531 -1.795 1.2713
                        CHANNELS 6 Xposition Yposition Zposition Zrotation Xrotation Yrotation
                        End Site
                        {
                          OFFSET 0.0145 -0.0179 0.0127
                        }
                      }
                    }
                  }
                  JOINT lMid1
                  {
                    OFFSET 5.6954 0.21 2.1184
                    CHANNELS 6 Xposition Yposition Zposition Zrotation Xrotation Yrotation
                    JOINT lMid2
                    {
                      OFFSET 3.9766 -1.54 2.3863
                      CHANNELS 6 Xposition Yposition Zposition Zrotation Xrotation Yrotation
                      JOINT lMid2_End
                      {
                        OFFSET 1.4042 -1.926 1.125
                        CHANNELS 6 Xposition Yposition Zposition Zrotation Xrotation Yrotation
                        End Site
                        {
                          OFFSET 0.014 -0.0193 0.0113
                        }
                      }
                    }
                  }
                }
                JOINT lCarpal2
                {
                  OFFSET 2.0956 0.66 -0.3894
                  CHANNELS 6 Xposition Yposition Zposition Zrotation Xrotation Yrotation
                  JOINT lRing1
                  {
                    OFFSET 5.0395 -0.09 2.4971
                    CHANNELS 6 Xposition Yposition Zposition Zrotation Xrotation Yrotation
                    JOINT lRing2
                    {
                      OFFSET 3.7921 -1.552 1.4806
                      CHANNELS 6 Xposition Yposition Zposition Zrotation Xrotation Yrotation
                      JOINT lRing2_End
                      {
                        OFFSET 1.4655 -1.808 0.9609
                        CHANNELS 6 Xposition Yposition Zposition Zrotation Xrotation Yrotation
                        End Site
                        {
                          OFFSET 0.0147 -0.0181 0.0096
                        }
                      }
                    }
                  }
                  JOINT lPinky1
                  {
                    OFFSET 4.9141 -1.269 0.3591
                    CHANNELS 6 Xposition Yposition Zposition Zrotation Xrotation Yrotation
                    JOINT lPinky2
                    {
                      OFFSET 3.1477 -1.685 0.8462
                      CHANNELS 6 Xposition Yposition Zposition Zrotation Xrotation Yrotation
                      JOINT lPinky2_End
                      {
                        OFFSET 0.8055 -1.585 0.7955
                        CHANNELS 6 Xposition Yposition Zposition Zrotation Xrotation Yrotation
                        End Site
                        {
                          OFFSET 0.0081 -0.0158 0.008
                        }
                      }
                    }
                  }
                }
              }
            }
          }
        }
        JOINT rCollar
        {
          OFFSET -1.7069 20.075 5.0056
          CHANNELS 6 Xposition Yposition Zposition Zrotation Xrotation Yrotation
          JOINT rShldr
          {
            OFFSET -13.6458 -0.047 -4.849
            CHANNELS 6 Xposition Yposition Zposition Zrotation Xrotation Yrotation
            JOINT rForeArm
            {
              OFFSET -28.3255 -0.9759 2.2888
              CHANNELS 6 Xposition Yposition Zposition Zrotation Xrotation Yrotation
              JOINT rHand
              {
                OFFSET -22.1583 -0.53 10.8316
                CHANNELS 6 Xposition Yposition Zposition Zrotation Xrotation Yrotation
                JOINT rThumb1
                {
                  OFFSET -0.786 0.112 2.5817
                  CHANNELS 6 Xposition Yposition Zposition Zrotation Xrotation Yrotation
                  JOINT rThumb2
                  {
                    OFFSET -0.3601 -0.878 4.2331
                    CHANNELS 6 Xposition Yposition Zposition Zrotation Xrotation Yrotation
                    JOINT rThumb2_End
                    {
                      OFFSET -1.8127 -1.216 2.2227
                      CHANNELS 6 Xposition Yposition Zposition Zrotation Xrotation Yrotation
                      End Site
                      {
                        OFFSET -0.0181 -0.0122 0.0222
                      }
                    }
                  }
                }
                JOINT rCarpal1
                {
                  OFFSET -0.9571 1.114 1.7695
                  CHANNELS 6 Xposition Yposition Zposition Zrotation Xrotation Yrotation
                  JOINT rIndex1
                  {
                    OFFSET -4.1246 0.487 4.1451
                    CHANNELS 6 Xposition Yposition Zposition Zrotation Xrotation Yrotation
                    JOINT rIndex2
                    {
                      OFFSET -3.4052 -1.454 2.7682
                      CHANNELS 6 Xposition Yposition Zposition Zrotation Xrotation Yrotation
                      JOINT rIndex2_End
                      {
                        OFFSET -1.4531 -1.795 1.2713
                        CHANNELS 6 Xposition Yposition Zposition Zrotation Xrotation Yrotation
                        End Site
                        {
                          OFFSET -0.0145 -0.018 0.0127
                        }
                      }
                    }
                  }
                  JOINT rMid1
                  {
                    OFFSET -5.6954 0.21 2.1184
                    CHANNELS 6 Xposition Yposition Zposition Zrotation Xrotation Yrotation
                    JOINT rMid2
                    {
                      OFFSET -3.9766 -1.54 2.3863
                      CHANNELS 6 Xposition Yposition Zposition Zrotation Xrotation Yrotation
                      JOINT rMid2_End
                      {
                        OFFSET -1.4042 -1.926 1.125
                        CHANNELS 6 Xposition Yposition Zposition Zrotation Xrotation Yrotation
                        End Site
                        {
                          OFFSET -0.014 -0.0193 0.0113
                        }
                      }
                    }
                  }
                }
                JOINT rCarpal2
                {
                  OFFSET -2.0956 0.66 -0.3894
                  CHANNELS 6 Xposition Yposition Zposition Zrotation Xrotation Yrotation
                  JOINT rRing1
                  {
                    OFFSET -5.0395 -0.09 2.4971
                    CHANNELS 6 Xposition Yposition Zposition Zrotation Xrotation Yrotation
                    JOINT rRing2
                    {
                      OFFSET -3.7921 -1.552 1.4806
                      CHANNELS 6 Xposition Yposition Zposition Zrotation Xrotation Yrotation
                      JOINT rRing2_End
                      {
                        OFFSET -1.4655 -1.808 0.9609
                        CHANNELS 6 Xposition Yposition Zposition Zrotation Xrotation Yrotation
                        End Site
                        {
                          OFFSET -0.0147 -0.0181 0.0096
                        }
                      }
                    }
                  }
                  JOINT rPinky1
                  {
                    OFFSET -4.9141 -1.269 0.3592
                    CHANNELS 6 Xposition Yposition Zposition Zrotation Xrotation Yrotation
                    JOINT rPinky2
                    {
                      OFFSET -3.1477 -1.685 0.8462
                      CHANNELS 6 Xposition Yposition Zposition Zrotation Xrotation Yrotation
                      JOINT rPinky2_End
                      {
                        OFFSET -0.8055 -1.585 0.7955
                        CHANNELS 6 Xposition Yposition Zposition Zrotation Xrotation Yrotation
                        End Site
                        {
                          OFFSET -0.0081 -0.0158 0.008
                        }
                      }
                    }
                  }
                }
              }
            }
          }
        }
      }
    }
  }
  JOINT lThigh
  {
    OFFSET 8.367 -8.2066 0.5982
    CHANNELS 6 Xposition Yposition Zposition Zrotation Xrotation Yrotation
    JOINT lShin
    {
      OFFSET 2.1923 -43.463 -0.4932
      CHANNELS 6 Xposition Yposition Zposition Zrotation Xrotation Yrotation
      JOINT lFoot
      {
        OFFSET 0.7333 -45.8593 -2.6451
        CHANNELS 6 Xposition Yposition Zposition Zrotation Xrotation Yrotation
        End Site
        {
          OFFSET 2.6618 -4.2699 12.3931
        }
      }
    }
  }
  JOINT rThigh
  {
    OFFSET -8.367 -8.2066 0.5982
    CHANNELS 6 Xposition Yposition Zposition Zrotation Xrotation Yrotation
    JOINT rShin
    {
      OFFSET -2.1923 -43.463 -0.4931
      CHANNELS 6 Xposition Yposition Zposition Zrotation Xrotation Yrotation
      JOINT rFoot
      {
        OFFSET -0.7333 -45.8593 -2.6451
        CHANNELS 6 Xposition Yposition Zposition Zrotation Xrotation Yrotation
        End Site
        {
          OFFSET -2.6618 -4.2699 12.3931
        }
      }
    }
  }
}
MOTION
Frames:	4
Frame Time:	0.0333333
0 90.174 2.4664 0 0 -0 0 -1.186 -1.5018 0 0 -0 0 9.964 0.2134 0 0 -0 0 13.134 -3.2573 0 0 -0 0 20.686 -1.6905 0 0 -0 0 7.238 -0.1237 0 0 -0 1.7069 20.075 5.0056 0 0 -0 13.6458 -0.047 -4.849 1.66051 0.0835086 5.75766 28.3255 -0.9759 2.2888 -0.0175111 0.895433 15.7816 22.1583 -0.53 10.8316 7.95139e-016 -1.98785e-016 -0 0.786 0.112 2.5817 5.46658e-016 -3.97569e-016 -0 0.3601 -0.878 4.2331 5.96354e-016 0 -0 1.8127 -1.216 2.2227 3.97569e-016 1.98785e-016 9.54166e-015 0.9571 1.114 1.7695 1.49089e-016 -3.97569e-016 -0 4.1246 0.487 4.1451 6.4605e-016 0 3.18055e-015 3.4052 -1.454 2.7682 5.96354e-016 0 3.18055e-015 1.4531 -1.795 1.2713 8.94531e-016 -1.98785e-016 6.36111e-015 5.6954 0.21 2.1184 6.4605e-016 0 3.18055e-015 3.9766 -1.54 2.3863 5.96354e-016 0 3.18055e-015 1.4042 -1.926 1.125 8.94531e-016 -1.98785e-016 6.36111e-015 2.0956 0.66 -0.3894 1.49089e-016 -3.97569e-016 -0 5.0395 -0.09 2.4971 6.4605e-016 0 3.18055e-015 3.7921 -1.552 1.4806 5.96354e-016 0 3.18055e-015 1.4655 -1.808 0.9609 8.94531e-016 -1.98785e-016 6.36111e-015 4.9141 -1.269 0.3591 6.4605e-016 0 3.18055e-015 3.1477 -1.685 0.8462 5.96354e-016 0 3.18055e-015 0.8055 -1.585 0.7955 8.94531e-016 -1.98785e-016 6.36111e-015 -1.7069 20.075 5.0056 0 0 -0 -13.6458 -0.047 -4.849 -1.4496 0.0636048 -5.0245 -28.3255 -0.9759 2.2888 -1.74811 1.20616 -16.8394 -22.1583 -0.53 10.8316 -1.19271e-015 1.98785e-016 -3.18055e-015 -0.786 0.112 2.5817 -3.97569e-016 1.98785e-016 -3.18055e-015 -0.3601 -0.878 4.2331 -2.98177e-016 1.98785e-016 -3.18055e-015 -1.8127 -1.216 2.2227 -2.98177e-016 3.97569e-016 -0 -0.9571 1.114 1.7695 4.96962e-016 0 -6.36111e-015 -4.1246 0.487 4.1451 -9.93923e-017 3.97569e-016 -0 -3.4052 -1.454 2.7682 -8.94531e-016 5.96354e-016 -0 -1.4531 -1.795 1.2713 -3.97569e-016 3.97569e-016 -0 -5.6954 0.21 2.1184 -9.93923e-017 3.97569e-016 -0 -3.9766 -1.54 2.3863 -8.94531e-016 5.96354e-016 -0 -1.4042 -1.926 1.125 -3.97569e-016 3.97569e-016 -0 -2.0956 0.66 -0.3894 4.96962e-016 0 -6.36111e-015 -5.0395 -0.09 2.4971 -9.93923e-017 3.97569e-016 -0 -3.7921 -1.552 1.4806 -8.94531e-016 5.96354e-016 -0 -1.4655 -1.808 0.9609 -3.97569e-016 3.97569e-016 -0 -4.9141 -1.269 0.3592 -9.93923e-017 3.97569e-016 -0 -3.1477 -1.685 0.8462 -8.94531e-016 5.96354e-016 -0 -0.8055 -1.585 0.7955 -3.97569e-016 3.97569e-016 -0 8.367 -8.2066 0.5982 -4.66115 -1.03232 0.120763 2.1923 -43.463 -0.4932 0.00990601 1.55097 0.177175 0.7333 -45.8593 -2.6451 4.65196 -0.54114 -0.255042 -8.367 -8.2066 0.5982 4.66115 -1.03222 -0.120763 -2.1923 -43.463 -0.4931 -0.00990459 1.5509 -0.177176 -0.7333 -45.8593 -2.6451 -4.65196 -0.541171 0.255041 
42.5984 30.9059 31.7629 179.993 59.0055 -30.0017 5.32907e-015 -1.186 -1.5018 -1.39805 10.1868 3.97935 3.55271e-015 9.964 0.2134 -3.61103 20.2446 8.41718 7.10543e-015 13.134 -3.2573 -3.61104 20.2446 8.41719 3.55271e-015 20.686 -1.6905 0.000131395 13.9927 -3.07862e-005 -3.55271e-015 7.238 -0.1237 -0.0996655 -0.159107 -0.000138189 1.7069 20.075 5.0056 -32.575 -2.1803 -7.86966 13.6458 -0.047 -4.849 -33.878 54.9043 5.06371 28.3255 -0.9759 2.2888 13.077 34.4273 2.02994 22.1583 -0.53 10.8316 0.0740455 -18.443 -6.80776 0.786 0.112 2.5817 -1.24193e-007 5.2676e-007 6.05523e-006 0.3601 -0.878 4.2331 1.59028e-015 1.59028e-015 6.36111e-015 1.8127 -1.216 2.2227 -1.84003e-007 -2.72198e-007 5.97295e-008 0.9571 1.114 1.7695 0 7.95139e-016 -0 4.1246 0.487 4.1451 -1.24193e-007 5.2676e-007 6.05523e-006 3.4052 -1.454 2.7682 1.19271e-015 1.59028e-015 1.27222e-014 1.4531 -1.795 1.2713 -1.84003e-007 -2.72198e-007 5.97295e-008 5.6954 0.21 2.1184 -1.24193e-007 5.2676e-007 6.05523e-006 3.9766 -1.54 2.3863 1.19271e-015 1.59028e-015 1.27222e-014 1.4042 -1.926 1.125 -1.84003e-007 -2.72198e-007 5.97295e-008 2.0956 0.66 -0.3894 0 7.95139e-016 -0 5.0395 -0.09 2.4971 -1.24193e-007 5.2676e-007 6.05523e-006 3.7921 -1.552 1.4806 1.19271e-015 1.59028e-015 1.27222e-014 1.4655 -1.808 0.9609 -1.84003e-007 -2.72198e-007 5.97295e-008 4.9141 -1.269 0.3591 -1.24193e-007 5.2676e-007 6.05523e-006 3.1477 -1.685 0.8462 1.19271e-015 1.59028e-015 1.27222e-014 0.8055 -1.585 0.7955 -1.84003e-007 -2.72198e-007 5.97295e-008 -1.7069 20.075 5.0056 -20.9873 -10.1951 24.5151 -13.6458 -0.047 -4.849 86.154 -29.0783 19.4729 -28.3255 -0.9759 2.2888 23.6251 29.6794 9.8269 -22.1583 -0.53 10.8316 38.1035 -22.9178 4.9621 -0.786 0.112 2.5817 -1.07942e-006 3.45559e-006 -9.92148e-007 -0.3601 -0.878 4.2331 1.66866e-006 1.53337e-005 2.39801e-006 -1.8127 -1.216 2.2227 3.18055e-015 3.18055e-015 -0 -0.9571 1.114 1.7695 -3.18055e-015 -1.59028e-015 1.59028e-015 -4.1246 0.487 4.1451 -1.07942e-006 3.45559e-006 -9.92148e-007 -3.4052 -1.454 2.7682 1.66866e-006 1.53337e-005 2.39801e-006 -1.4531 -1.795 1.2713 -1.32417e-031 4.77083e-015 1.59028e-015 -5.6954 0.21 2.1184 -1.07942e-006 3.45559e-006 -9.92148e-007 -3.9766 -1.54 2.3863 1.66866e-006 1.53337e-005 2.39801e-006 -1.4042 -1.926 1.125 -1.32417e-031 4.77083e-015 1.59028e-015 -2.0956 0.66 -0.3894 -3.18055e-015 -1.59028e-015 1.59028e-015 -5.0395 -0.09 2.4971 -1.07942e-006 3.45559e-006 -9.92148e-007 -3.7921 -1.552 1.4806 1.66866e-006 1.53337e-005 2.39801e-006 -1.4655 -1.808 0.9609 -1.32417e-031 4.77083e-015 1.59028e-015 -4.9141 -1.269 0.3592 -1.07942e-006 3.45559e-006 -9.92148e-007 -3.1477 -1.685 0.8462 1.66866e-006 1.53337e-005 2.39801e-006 -0.8055 -1.585 0.7955 -1.32417e-031 4.77083e-015 1.59028e-015 8.367 -8.2066 0.5982 62.3721 -53.615 64.0848 2.1923 -43.463 -0.4932 3.13585 18.2671 0.389523 0.7333 -45.8593 -2.6451 6.42635 -0.00602069 -0.370477 -8.367 -8.2066 0.5982 -78.3162 -43.1187 -75.3821 -2.1923 -43.463 -0.4931 -118.085 67.1709 143.173 -0.7333 -45.8593 -2.6451 -28.4253 17.2293 5.05704 
42.5896 30.9324 31.7389 179.993 59.0055 -30.0017 0 -1.186 -1.5018 -1.33407 9.97834 3.99587 -3.55271e-015 9.964 0.2134 -3.46322 19.8327 8.42506 0 13.134 -3.2573 -3.46322 19.8327 8.42505 3.55271e-015 20.686 -1.6905 2.2347e-005 13.604 -1.05406e-006 7.10543e-015 7.238 -0.1237 -0.0996778 -0.547735 -0.000961721 1.7069 20.075 5.0056 -34.4012 -1.60969 -7.04051 13.6458 -0.047 -4.849 -31.8079 54.9144 4.98268 28.3255 -0.9759 2.2888 12.6268 34.5591 2.55768 22.1583 -0.53 10.8316 0.100456 -18.0034 -7.27617 0.786 0.112 2.5817 1.70325e-007 2.37474e-007 6.12023e-006 0.3601 -0.878 4.2331 9.43152e-008 -1.91257e-007 7.42109e-009 1.8127 -1.216 2.2227 7.60096e-008 4.28731e-007 6.11281e-006 0.9571 1.114 1.7695 -1.76556e-031 7.95139e-016 1.27222e-014 4.1246 0.487 4.1451 1.70325e-007 2.37474e-007 6.12023e-006 3.4052 -1.454 2.7682 9.43152e-008 -1.91257e-007 7.42108e-009 1.4531 -1.795 1.2713 7.60096e-008 4.28731e-007 6.11281e-006 5.6954 0.21 2.1184 1.70325e-007 2.37474e-007 6.12023e-006 3.9766 -1.54 2.3863 9.43152e-008 -1.91257e-007 7.42108e-009 1.4042 -1.926 1.125 7.60096e-008 4.28731e-007 6.11281e-006 2.0956 0.66 -0.3894 -1.76556e-031 7.95139e-016 1.27222e-014 5.0395 -0.09 2.4971 1.70325e-007 2.37474e-007 6.12023e-006 3.7921 -1.552 1.4806 9.43152e-008 -1.91257e-007 7.42108e-009 1.4655 -1.808 0.9609 7.60096e-008 4.28731e-007 6.11281e-006 4.9141 -1.269 0.3591 1.70325e-007 2.37474e-007 6.12023e-006 3.1477 -1.685 0.8462 9.43152e-008 -1.91257e-007 7.42108e-009 0.8055 -1.585 0.7955 7.60096e-008 4.28731e-007 6.11281e-006 -1.7069 20.075 5.0056 -20.4306 -9.12351 25.1358 -13.6458 -0.047 -4.849 85.9313 -29.1786 19.5006 -28.3255 -0.9759 2.2888 23.4776 29.6102 9.62455 -22.1583 -0.53 10.8316 37.3549 -23.1178 3.48828 -0.786 0.112 2.5817 6.36111e-015 6.36111e-015 -0 -0.3601 -0.878 4.2331 4.17785e-006 4.86609e-006 2.68838e-008 -1.8127 -1.216 2.2227 6.92814e-006 1.12578e-006 -1.38858e-006 -0.9571 1.114 1.7695 6.36111e-015 3.18055e-015 -0 -4.1246 0.487 4.1451 6.36111e-015 -3.18055e-015 4.77083e-015 -3.4052 -1.454 2.7682 4.17785e-006 4.86609e-006 2.68838e-008 -1.4531 -1.795 1.2713 6.92814e-006 1.12578e-006 -1.38858e-006 -5.6954 0.21 2.1184 6.36111e-015 -3.18055e-015 4.77083e-015 -3.9766 -1.54 2.3863 4.17785e-006 4.86609e-006 2.68838e-008 -1.4042 -1.926 1.125 6.92814e-006 1.12578e-006 -1.38858e-006 -2.0956 0.66 -0.3894 6.36111e-015 3.18055e-015 -0 -5.0395 -0.09 2.4971 6.36111e-015 -3.18055e-015 4.77083e-015 -3.7921 -1.552 1.4806 4.17785e-006 4.86609e-006 2.68838e-008 -1.4655 -1.808 0.9609 6.92814e-006 1.12578e-006 -1.38858e-006 -4.9141 -1.269 0.3592 6.36111e-015 -3.18055e-015 4.77083e-015 -3.1477 -1.685 0.8462 4.17785e-006 4.86609e-006 2.68838e-008 -0.8055 -1.585 0.7955 6.92814e-006 1.12578e-006 -1.38858e-006 8.367 -8.2066 0.5982 62.3582 -53.6264 64.0752 2.1923 -43.463 -0.4932 3.13437 18.2222 0.390716 0.7333 -45.8593 -2.6451 6.44178 0.0362086 -0.373059 -8.367 -8.2066 0.5982 -79.1613 -43.6065 -75.9882 -2.1923 -43.463 -0.4931 -118.622 67.3246 143.629 -0.7333 -45.8593 -2.6451 -28.4331 17.2158 5.06436 
42.5814 30.9589 31.7147 179.993 59.0055 -30.0017 5.32907e-015 -1.186 -1.5018 -1.26938 9.76864 4.0112 3.55271e-015 9.964 0.2134 -3.31391 19.4184 8.43094 -3.55271e-015 13.134 -3.2573 -3.3139 19.4183 8.43094 -3.55271e-015 20.686 -1.6905 2.81566e-005 13.2147 -4.89374e-006 3.55271e-015 7.238 -0.1237 -0.0997027 -0.936429 -0.00178551 1.7069 20.075 5.0056 -36.2415 -1.06399 -6.19085 13.6458 -0.047 -4.849 -29.7269 54.9227 4.9006 28.3255 -0.9759 2.2888 12.1743 34.6876 3.08762 22.1583 -0.53 10.8316 0.130586 -17.5638 -7.74395 0.786 0.112 2.5817 -3.97569e-016 -3.97569e-016 3.18055e-015 0.3601 -0.878 4.2331 1.98626e-031 -1.19271e-015 9.54166e-015 1.8127 -1.216 2.2227 -1.19271e-015 -1.19271e-015 3.18055e-015 0.9571 1.114 1.7695 -3.97569e-016 3.97569e-016 3.18055e-015 4.1246 0.487 4.1451 3.97569e-016 -3.97569e-016 2.22639e-014 3.4052 -1.454 2.7682 -3.97569e-016 -7.95139e-016 3.18055e-015 1.4531 -1.795 1.2713 3.97569e-016 -3.97569e-016 1.27222e-014 5.6954 0.21 2.1184 3.97569e-016 -3.97569e-016 2.22639e-014 3.9766 -1.54 2.3863 -3.97569e-016 -7.95139e-016 3.18055e-015 1.4042 -1.926 1.125 3.97569e-016 -3.97569e-016 1.27222e-014 2.0956 0.66 -0.3894 -3.97569e-016 3.97569e-016 3.18055e-015 5.0395 -0.09 2.4971 3.97569e-016 -3.97569e-016 2.22639e-014 3.7921 -1.552 1.4806 -3.97569e-016 -7.95139e-016 3.18055e-015 1.4655 -1.808 0.9609 3.97569e-016 -3.97569e-016 1.27222e-014 4.9141 -1.269 0.3591 3.97569e-016 -3.97569e-016 2.22639e-014 3.1477 -1.685 0.8462 -3.97569e-016 -7.95139e-016 3.18055e-015 0.8055 -1.585 0.7955 3.97569e-016 -3.97569e-016 1.27222e-014 -1.7069 20.075 5.0056 -19.8861 -8.04374 25.7456 -13.6458 -0.047 -4.849 85.7083 -29.2789 19.5278 -28.3255 -0.9759 2.2888 23.3299 29.5414 9.42212 -22.1583 -0.53 10.8316 36.5981 -23.3004 2.00613 -0.786 0.112 2.5817 1.27222e-014 0 3.18055e-015 -0.3601 -0.878 4.2331 1.90833e-014 0 7.95139e-016 -1.8127 -1.216 2.2227 1.90833e-014 -1.59028e-015 4.77083e-015 -0.9571 1.114 1.7695 0 0 -0 -4.1246 0.487 4.1451 6.36111e-015 -7.15625e-015 7.95139e-015 -3.4052 -1.454 2.7682 1.90833e-014 0 7.95139e-016 -1.4531 -1.795 1.2713 1.90833e-014 0 7.95139e-016 -5.6954 0.21 2.1184 6.36111e-015 -7.15625e-015 7.95139e-015 -3.9766 -1.54 2.3863 1.90833e-014 0 7.95139e-016 -1.4042 -1.926 1.125 1.90833e-014 0 7.95139e-016 -2.0956 0.66 -0.3894 0 0 -0 -5.0395 -0.09 2.4971 6.36111e-015 -7.15625e-015 7.95139e-015 -3.7921 -1.552 1.4806 1.90833e-014 0 7.95139e-016 -1.4655 -1.808 0.9609 1.90833e-014 0 7.95139e-016 -4.9141 -1.269 0.3592 6.36111e-015 -7.15625e-015 7.95139e-015 -3.1477 -1.685 0.8462 1.90833e-014 0 7.95139e-016 -0.8055 -1.585 0.7955 1.90833e-014 0 7.95139e-016 8.367 -8.2066 0.5982 62.3447 -53.6377 64.066 2.1923 -43.463 -0.4932 3.13289 18.1774 0.391844 0.7333 -45.8593 -2.6451 6.45692 0.0785937 -0.375642 -8.367 -8.2066 0.5982 -80.0205 -44.0886 -76.6095 -2.1923 -43.463 -0.4931 -119.168 67.4763 144.092 -0.7333 -45.8593 -2.6451 -28.441 17.2019 5.07127 
